<?xml version="1.0" standalone="no"?>
<!DOCTYPE svg PUBLIC "-//W3C//DTD SVG 20010904//EN"
 "http://www.w3.org/TR/2001/REC-SVG-20010904/DTD/svg10.dtd">
<svg version="1.0" xmlns="http://www.w3.org/2000/svg"
 width="1000.000000pt" height="1000.000000pt" viewBox="0 0 1000.000000 1000.000000"
 preserveAspectRatio="xMidYMid meet">

<g transform="translate(0.000000,1000.000000) scale(0.100000,-0.100000)"
fill="#000000" stroke="none">
<path d="M460 8435 l0 -1105 158 0 c945 -1 2046 0 2049 3 3 3 4 1104 3 2050
l0 157 -1105 0 -1105 0 0 -1105z m1898 -3 l2 -792 -792 2 -793 3 -2 780 c-2
429 -1 786 2 792 3 10 175 12 792 10 l788 -2 3 -793z"/>
<path d="M1090 8435 l0 -475 475 0 475 0 0 475 0 475 -475 0 -475 0 0 -475z"/>
<path d="M3308 9383 l-3 -158 -157 -3 -158 -3 0 -314 0 -315 315 0 315 0 0
160 0 160 -155 0 -155 0 0 160 0 160 155 0 155 0 0 155 0 155 -155 0 -154 0
-3 -157z"/>
<path d="M4580 9385 l0 -155 155 0 155 0 0 -160 0 -160 -155 0 -154 0 -3 -157
-3 -158 -157 -3 -158 -3 0 316 0 315 -160 0 -160 0 0 -475 0 -476 -157 1 c-87
1 -229 1 -315 0 l-158 0 0 -155 0 -155 315 0 314 0 3 158 3 157 315 0 315 0 3
-157 3 -158 -161 0 -160 0 -2 -792 -3 -793 -155 0 -155 0 -3 158 -3 157 -474
0 -475 0 0 160 0 160 -475 0 -475 0 0 -160 0 -161 -158 3 -157 3 -3 158 -3
157 -154 0 -155 0 0 -160 0 -160 -160 0 -160 0 0 -950 0 -950 -315 0 -315 0 0
-315 0 -315 315 0 315 0 0 -160 0 -160 -315 0 -315 0 0 -315 0 -315 315 0 315
0 0 315 0 315 160 0 160 0 0 -315 0 -314 157 -3 158 -3 3 -158 3 -157 789 0
790 0 0 320 0 321 158 -3 157 -3 0 -475 0 -475 -160 -2 c-88 -1 -231 -2 -317
-3 l-158 0 0 -315 0 -315 635 0 635 0 0 160 0 160 475 0 475 0 0 160 0 161
158 -3 157 -3 3 -157 3 -158 154 0 155 0 0 -160 0 -160 -155 0 -154 0 -3 -158
-3 -157 -635 -2 c-349 -2 -706 -3 -792 -3 l-158 0 0 -155 0 -155 475 0 475 0
0 -320 0 -321 -157 3 -158 3 -3 158 -3 157 -154 0 -155 0 0 -155 0 -154 158
-3 157 -3 3 -158 3 -157 314 0 315 0 0 160 0 160 155 0 155 0 0 155 0 155
-155 0 -155 0 0 160 0 160 155 0 154 0 3 158 3 157 158 3 157 3 0 -161 0 -160
160 0 160 0 0 -160 0 -160 155 0 155 0 0 160 0 160 -155 0 -155 0 0 160 0 160
473 -3 472 -2 3 -157 3 -157 157 -3 157 -3 3 -158 3 -157 154 0 155 0 0 -160
0 -160 -315 0 -315 0 0 160 0 160 -160 0 -160 0 0 -160 0 -160 -317 0 c-175 0
-389 1 -475 0 l-158 0 0 -155 0 -155 475 0 474 0 3 158 3 157 155 0 155 0 3
-157 3 -158 474 0 475 0 0 315 0 315 -160 0 -160 0 0 160 0 160 160 0 160 0 0
160 0 160 473 -3 472 -2 3 -157 3 -157 157 -3 157 -3 3 -157 3 -158 154 0 155
0 0 635 0 635 -155 0 -155 0 0 -157 c-1 -87 -2 -230 -3 -318 l-2 -160 -157 -3
-158 -3 0 161 0 160 -160 0 -160 0 0 160 0 160 -160 0 -160 0 0 315 0 315 160
0 160 0 0 -155 0 -155 160 0 160 0 0 155 0 155 -160 0 -160 0 0 635 0 635 475
0 475 0 0 155 0 154 -157 3 -158 3 0 315 0 315 158 3 157 3 0 154 0 154 -157
3 -158 3 -3 158 -3 157 161 0 160 0 0 160 0 160 -160 0 -160 0 0 155 0 155
-157 0 c-395 1 -777 0 -779 -3 -3 -3 -5 -217 -4 -469 l0 -158 155 0 155 0 0
-155 0 -155 158 0 c86 -1 229 -2 317 -3 l160 -2 3 -157 3 -158 -161 0 -160 0
-2 -317 -3 -318 -315 0 -315 0 -3 158 -3 157 -789 0 -790 0 0 -315 0 -315 318
-2 317 -3 2 -155 c1 -85 2 -226 3 -312 l0 -158 155 0 155 0 0 -160 0 -160
-475 0 -475 0 0 -160 0 -161 -157 3 -158 3 -2 315 c-1 173 -3 386 -3 473 l0
157 -155 0 -154 0 -3 -157 -3 -158 -157 -3 -158 -3 0 -154 0 -155 -315 0 -315
0 0 155 0 154 -157 3 -158 3 -3 318 -2 317 160 0 160 0 0 -160 0 -160 315 0
315 0 0 160 0 160 -315 0 -315 0 0 160 0 160 155 0 155 0 0 158 c1 86 2 227 3
312 l2 155 157 3 157 3 3 157 3 157 158 3 157 3 0 154 0 155 155 0 154 0 3
158 3 157 157 3 157 3 3 157 3 157 155 0 155 0 3 -157 3 -157 157 -3 157 -3 3
-157 3 -158 154 0 155 0 0 -315 0 -315 160 0 160 0 0 315 0 315 -160 0 -160 0
0 160 0 160 160 0 160 0 0 315 0 315 -160 0 -160 0 0 -315 0 -315 -160 0 -160
0 0 155 0 155 -155 0 -155 0 0 160 0 160 155 0 155 0 0 160 0 160 -155 0 -155
0 0 315 0 315 -160 0 -160 0 0 160 0 160 -160 0 -161 0 3 158 3 157 160 2 c88
1 231 2 318 3 l157 0 0 155 0 155 -315 0 -314 0 -3 -157 -3 -158 -475 0 -475
0 -3 158 -3 157 161 0 160 0 0 160 0 160 -160 0 -161 0 3 158 3 157 158 3 157
3 0 154 0 155 -155 0 -154 0 -3 -157 -3 -158 -157 -3 -158 -3 0 161 0 160
-315 0 -315 0 0 -155z m945 -635 l0 -155 -157 -3 -158 -3 0 -154 0 -154 158
-3 157 -3 0 -475 0 -475 -157 -3 -158 -3 0 161 0 160 -160 0 -160 0 0 -155 0
-154 158 -3 157 -3 0 -475 0 -475 -157 -3 -158 -3 0 -154 0 -155 315 0 314 0
3 158 3 157 158 3 157 3 0 -161 0 -160 160 0 160 0 0 155 0 154 -157 3 -158 3
-3 157 -3 157 -157 3 -157 3 0 315 0 315 158 3 157 3 0 -161 0 -160 160 0 160
0 0 -160 0 -160 160 0 160 0 0 -315 0 -315 -160 0 -160 0 0 -160 0 -160 -160
0 -160 0 0 -160 0 -160 -155 0 -155 0 0 -155 0 -155 -160 0 -160 0 0 -160 0
-160 -160 0 -160 0 0 -160 0 -160 -155 0 -155 0 0 -157 c0 -87 0 -371 0 -630
l0 -473 -160 0 -160 0 -2 -318 -3 -317 -155 0 -155 0 -3 318 -2 317 160 0 160
0 0 315 0 315 -160 0 -160 0 0 160 0 160 -155 0 -154 0 -3 -158 -3 -157 -157
-3 -158 -3 0 161 0 160 -160 0 -160 0 0 -160 0 -160 -315 0 -315 0 0 -155 0
-155 158 0 c86 -1 228 -1 315 0 l157 1 0 -161 0 -160 -635 0 -635 0 0 315 0
315 160 0 160 0 0 160 0 160 -160 0 -161 0 3 158 3 157 158 3 157 3 0 -161 0
-160 475 0 474 0 3 157 3 158 158 3 157 3 0 154 0 155 160 0 160 0 0 -155 0
-155 155 0 155 0 0 -160 0 -160 160 0 160 0 0 155 0 154 -157 3 -158 3 -3 157
-3 157 -157 3 -157 3 -3 158 -3 157 -629 0 -630 0 0 160 0 161 158 -1 c86 -1
228 -1 315 0 l157 0 0 155 0 155 320 0 320 0 0 -155 0 -155 155 0 155 0 0
-160 0 -160 160 0 160 0 0 -160 0 -160 315 0 315 0 0 160 0 160 160 0 160 0 0
315 0 315 -315 0 -314 0 -3 -157 -3 -158 -315 0 -315 0 -3 318 -2 317 -160 0
-161 0 3 158 3 157 158 3 157 3 0 -161 0 -160 315 0 315 0 0 158 c0 86 0 442
0 790 l0 632 160 0 160 0 0 315 0 314 -157 3 -158 3 -3 158 -3 157 161 0 160
0 0 160 0 160 318 -2 317 -3 0 -155z m633 -1107 l-3 -318 -155 0 -155 0 -3
318 -2 317 160 0 160 0 -2 -317z m632 -318 l0 -315 160 0 160 0 0 -160 0 -160
-317 2 -318 3 -2 473 -3 472 160 0 160 0 0 -315z m-4112 -792 l-3 -158 -157
-3 -158 -3 0 161 0 160 160 0 161 0 -3 -157z m-638 -313 l0 -160 318 -2 317
-3 0 -155 0 -155 -157 -3 -157 -3 -3 -157 -3 -157 -155 -2 c-85 -1 -226 -2
-312 -3 l-158 0 0 -155 0 -155 155 0 155 0 0 -160 0 -160 320 0 321 0 -3 -157
-3 -158 -315 0 -315 0 -3 158 -3 157 -314 0 -314 0 -3 -157 -3 -158 -155 0
-155 0 -3 158 -3 157 161 0 160 0 0 635 0 636 158 -3 157 -3 3 -157 3 -158
154 0 155 0 0 160 0 160 -160 0 -160 0 0 153 c0 85 3 157 7 160 3 4 75 7 160
7 l153 0 0 -160z m6018 -2062 l2 -318 -160 0 -160 0 0 160 0 160 -160 0 -160
0 0 153 c0 85 3 157 7 160 3 4 146 6 317 4 l311 -2 3 -317z m-2848 -1108 l0
-160 -160 0 -160 0 0 -160 0 -161 -157 3 -158 3 -3 158 -3 157 161 0 160 0 0
160 0 160 160 0 160 0 0 -160z m630 -320 l0 -161 -157 3 -158 3 -3 158 -3 157
161 0 160 0 0 -160z m640 3 c-1 -87 -1 -229 0 -315 l0 -158 155 0 155 0 0
-160 0 -160 -315 0 -314 0 -3 -157 -3 -158 -155 0 -155 0 -3 158 -3 157 161 0
160 0 0 475 0 475 160 0 161 0 -1 -157z m1580 -318 l0 -475 -475 0 -475 0 0
475 0 475 475 0 475 0 0 -475z m-4120 5 l0 -160 -160 0 -160 0 0 153 c0 85 3
157 7 160 3 4 75 7 160 7 l153 0 0 -160z"/>
<path d="M7430 2415 l0 -155 155 0 155 0 0 155 0 155 -155 0 -155 0 0 -155z"/>
<path d="M6160 9225 l0 -315 155 0 154 0 3 163 c2 89 2 231 0 315 l-3 152
-154 0 -155 0 0 -315z"/>
<path d="M6790 9225 l0 -315 160 0 160 0 0 315 0 315 -160 0 -160 0 0 -315z"/>
<path d="M7430 9383 c-1 -946 0 -2047 3 -2050 3 -3 1104 -4 2050 -3 l157 0 0
1105 0 1105 -1105 0 -1105 0 0 -157z m1895 -948 l0 -790 -792 -3 -793 -2 0
788 c0 434 3 792 6 795 4 4 361 6 793 4 l786 -2 0 -790z"/>
<path d="M8060 8435 l0 -475 475 0 475 0 0 475 0 475 -475 0 -475 0 0 -475z"/>
<path d="M2990 7485 l0 -154 158 -3 157 -3 3 -157 3 -158 314 0 315 0 0 315 0
315 -155 0 -154 0 -3 -157 -3 -158 -157 -3 -158 -3 0 161 0 160 -160 0 -160 0
0 -155z"/>
<path d="M8690 6850 l0 -160 315 0 315 0 0 160 0 160 -315 0 -315 0 0 -160z"/>
<path d="M6790 5580 l0 -160 -155 0 -155 0 0 -155 0 -155 -160 0 -160 0 0
-315 0 -315 155 0 155 0 0 158 c1 86 2 227 3 312 l2 155 318 3 317 2 0 315 0
315 -160 0 -160 0 0 -160z"/>
<path d="M6790 3685 l0 -155 160 0 160 0 0 155 0 155 -160 0 -160 0 0 -155z"/>
<path d="M9328 3048 c-2 -90 -2 -232 0 -315 l3 -153 154 0 155 0 0 315 0 315
-155 0 -154 0 -3 -162z"/>
<path d="M618 2572 l-158 -3 0 -1104 0 -1105 1105 0 1105 0 0 158 c1 945 0
2046 -3 2049 -5 4 -1829 9 -2049 5z m1740 -1104 l-3 -793 -790 0 -790 0 -2
780 c-2 429 -1 786 2 793 3 9 172 12 795 12 l790 0 -2 -792z"/>
<path d="M1090 1465 l0 -475 475 0 475 0 0 475 0 475 -475 0 -475 0 0 -475z"/>
<path d="M3143 1622 l-153 -3 0 -154 0 -155 160 0 160 0 0 -475 0 -475 315 0
315 0 0 155 0 154 -157 3 -158 3 -2 315 c-1 173 -3 386 -3 472 l0 157 -162 3
c-90 2 -232 2 -315 0z"/>
<path d="M8380 835 l0 -155 155 0 155 0 0 -160 0 -160 160 0 160 0 0 315 0
315 -315 0 -315 0 0 -155z"/>
<path d="M9330 515 l0 -155 155 0 155 0 0 155 0 155 -155 0 -155 0 0 -155z"/>
</g>
</svg>
